/* XPM */
static char *xpm_3[] = {
"32 32 5 1 ",
"  c None",
". c #1F1C1E",
"X c #545468",
"o c #A0A08A",
"O c #EAF0ED",
"                                ",
"                                ",
"               ..               ",
"     ...      .OO.   ...        ",
"     ..O..  ..OO.  ..O..        ",
"     ..OOO..ooO.o..OOO..        ",
"      .OOooooo.oooooOO.         ",
"       .o.ooooooooo.o.          ",
"        .ooooooooooo.           ",
"        .ooo.ooo.ooo.           ",
"       .oooo.ooo.oooo.          ",
"       .o..OOO.OOO..o.          ",
"       ..OOOOOOOOOOO..  ...     ",
"       .OOOOOXXXOOOOO. .OOO.    ",
"        .OOOXXXXXOOO. .ooOO.    ",
"        ..OOXXXXXOO...OoooO.    ",
"     ...oo...XXX...oo...oo.     ",
"   ..ooooooOOOOOOOoooooo..      ",
"  .Ooooo..oOOOOOOOo..ooooO.     ",
"  .OOoo.oooOOOOOOOooo.ooOO.     ",
"  .OOo.oooOOOO.OOOOooo.oOO.     ",
"   ...oooOOOOOOOOOOOooo...      ",
"     .oo.............oo..       ",
"      ..OOOOOOOOOOOOO..o.       ",
"      .OOOOOOOOOOOOOOO.o.       ",
"     ..OOOOOOOOOOOOOOO..        ",
"    .o.OOOOOOOOOOOOOOO.o.       ",
"    .oo.OOOOOOXOOOOOO.oo.       ",
"   .Ooo.OOOOOOXOOOOOO.ooO.      ",
"   .OOOO.OOOOOXOOOOO.OOOO.      ",
"   .OOOOO.OOOOXOOOO.OOOOO.      ",
"    ..... ......... .....       "
};
