/* XPM */
static char *xpm_1[] = {
"32 32 5 1 ",
"  c None",
". c #1F1C1E",
"X c #545468",
"o c #A0A08A",
"O c #EAF0ED",
"                                ",
"                                ",
"              ..                ",
"       ..... .OO...  ....       ",
"       ..OOO.o.OOoo..OOO..      ",
"       ..OOoooo..oooooOO..      ",
"        ..o.ooooooooo.o...      ",
"          .ooooooooooo.         ",
"          .oo.ooo.oooo.         ",
"         .ooo.ooo.ooooo.        ",
"         .o.OOO.OOOO..o.        ",
"    ...  ..OOOOOOOOOOO..        ",
"   .OOO. .OOOOXXXOOOOOO.        ",
"   .OOoo. .OOXXXXXOOOO.         ",
"   .OoooO...OXXXXXOOO..         ",
"    .ooO..oo..XXX....oo.        ",
"    .oO.oooooOOOOOOOoooo.       ",
"    .o.ooo..oOOOOOOOooooo.      ",
"     .ooo.oooOOOOOOOoo.oo.      ",
"     .Ooo.ooOOOOOOOOO.oooo.     ",
"     .OO.ooOOOOO.OOOO.Oooo.     ",
"      ...o............OOOO.     ",
"      .o..OOOOOOOOOOOO.OO.      ",
"      .o.OOOOOOOOOOOOOO..       ",
"      .o.OOOOOOOOOOOOOOO.       ",
"       .o.OOOOOOOOOOOOO.o.      ",
"      .ooo.OOOOOXOOOOOO.oo.     ",
"      .ooo.OOOOOXOOOOO.ooo.     ",
"      .Oooo.OOOOXOOOOO.ooo.     ",
"     .OOOOO.OOOOXOOOO.OOOO.     ",
"     .OOOOO ......... ....      ",
"      .....                     "
};
