/* XPM */
static char *xpm_0[] = {
"32 32 5 1 ",
"  c None",
". c #1F1C1E",
"X c #545468",
"o c #A0A08A",
"O c #EAF0ED",
"                                ",
"                                ",
"               ..               ",
"      ....  ...OO. .....        ",
"     ..OOO..ooOO.o.OOO..        ",
"     ..OOooooo..ooooOO..        ",
"     ...o.ooooooooo.o..         ",
"        .ooooooooooo.           ",
"        .oooo.ooo.oo.           ",
"       .ooooo.ooo.ooo.          ",
"       .o..OOOO.OOO.o.          ",
"       ..OOOOOOOOOOO..  ...     ",
"       .OOOOOOXXXOOOO. .OOO.    ",
"        .OOOOXXXXXOO. .ooOO.    ",
"        ..OOOXXXXXO...OoooO.    ",
"       .oo....XXX..oo..Ooo.     ",
"      .ooooOOOOOOOooooo.Oo.     ",
"     .oooooOOOOOOOo..ooo.o.     ",
"     .oo.ooOOOOOOOooo.ooo.      ",
"    .oooo.OOOOOOOOOoo.ooO.      ",
"    .oooO.OOOO.OOOOOoo.OO.      ",
"    .OOOO............o...       ",
"     .OO.OOOOOOOOOOOO..o.       ",
"      ..OOOOOOOOOOOOOO.o.       ",
"      .OOOOOOOOOOOOOOO.o.       ",
"     .o.OOOOOOOOOOOOO.o.        ",
"    .oo.OOOOOOXOOOOO.ooo.       ",
"    .ooo.OOOOOXOOOOO.ooo.       ",
"    .ooo.OOOOOXOOOO.oooO.       ",
"    .OOOO.OOOOXOOOO.OOOOO.      ",
"     .... ......... OOOOO.      ",
"                    .....       "
};
