/* XPM */
static char *xpm_1[] = {
"32 32 5 1 ",
"  c None",
". c #1F1C1E",
"X c #545468",
"o c #A0A08A",
"O c #EAF0ED",
"                           X X  ",
"                           X X  ",
"               ..        XXX XXX",
"              .OO.              ",
"     .....  ..OO.. ..... XXX XXX",
"     ..OOO..oo..oo.OOO..   X X  ",
"     ..OOoooooooooooOO..   X X  ",
"      ..o.ooooooooo.o..         ",
"        .ooooooooooo.           ",
"        .oo.ooooo.oo....        ",
"       .oooo.ooo.oooo.OO.       ",
"       .o..OOO.OOO..o.ooo.      ",
"       ..OOOOOOOOOOO..ooo.      ",
"       .OOOOOXXXOOOOO.OOO.      ",
"  ......OOOOXXXXXOOOO......     ",
" .OOoooo.OOOXXXXXOOO.ooooOO.    ",
" .OOooooo....XXX....oooooOO.    ",
" .OooooooooOOOOOOOooooooooO.    ",
"  ..ooo.ooOOOOOOOOOoo.ooo..     ",
"    ...ooOOOOOOOOOOOoo....      ",
"     .ooOOOOOO.OOOOOOoo.O.      ",
"     .ooOOOOOOOOOOOOOoo.o.      ",
"     .o...............o.o.      ",
"      .OOOOOOOOOOOOOOO.o.       ",
"    ..OOOOOOOOOOOOOOOOO..       ",
"  ..o.OOOOOOOOOOOOOOOOO.o..     ",
" .Oooo.OOOOOOOOOOOOOOO.oooO.    ",
" .OOoo.OOOOOOOXOOOOOOO.ooOO.    ",
" .OOOoo.OOOOOOXOOOOOO.ooOOO.    ",
"  .OOOo.OOOOOOXOOOOOO.oOOO.     ",
"   .... .OOOOOXOOOOO. ....      ",
"         ...........            "
};
