/* XPM */
static char *xpm_3[] = {
"32 32 5 1 ",
"  c None",
". c #1F1C1E",
"X c #545468",
"o c #A0A08A",
"O c #EAF0ED",
"                                ",
"  X X          ..               ",
" XX XX        .OO.              ",
"     .....  ..OO.. .....        ",
" XX XX.OOO..oo..oo.OOO..        ",
"  X X..OOoooooooooooOO..        ",
"      ..o.ooooooooo.o..         ",
"        .ooooooooooo.           ",
"        .ooo.ooo.ooo.           ",
"       .oooo.ooo.oooo.          ",
"       .o..OOO.OOO..o. ...      ",
"       ..OOOOOOOOOOO...OOO.     ",
"       .OOOOOXXXOOOOO.ooOO.     ",
"        .OOOXXXXXOOO.Ooooo.     ",
"        ..OOXXXXXOO...Oooo.     ",
"    ....oo...XXX...oo.....      ",
"  ..oooooooOOOOOOOooooooo..     ",
" .Oooooo.ooOOOOOOOoo.oooooO.    ",
" .OOooo.oooOOOOOOOooo.oooOO.    ",
" .OOooo.ooOOOOOOOOOoo.oooOO.    ",
"  .....ooOOOOO.OOOOOoo.....     ",
"      .o.............o.o.       ",
"      ..OOOOOOOOOOOOO..o.       ",
"      .OOOOOOOOOOOOOOO.o.       ",
"     ..OOOOOOOOOOOOOOO..        ",
"    .oo.OOOOOOOOOOOOO.oo.       ",
"    .oo.OOOOOOXOOOOOO.oo.       ",
"   .Oooo.OOOOOXOOOOO.oooO.      ",
"   .OOoo.OOOOOXOOOOO.ooOO.      ",
"   .OOooo.OOOOXOOOO.oooOO.      ",
"    .OOo. ......... .oOO.       ",
"     ...             ...        "
};
