/* XPM */
static char *xpm_5[] = {
"32 32 5 1 ",
"  c None",
". c #1F1C1E",
"X c #545468",
"o c #A0A08A",
"O c #EAF0ED",
"  X X                           ",
"  X X                           ",
"XX   XX        ..          X X  ",
"              .OO.              ",
"XX   XX...  ..OO.. .....   X X  ",
"  X X..OOO..oo..oo.OOO..        ",
"  X X..OOoooooooooooOO..        ",
"      ..o.ooooooooo.o..         ",
"        .ooooooooooo.           ",
"        .oo.ooooo.oo.   ...     ",
"       .oooo.ooo.oooo. .OOO.    ",
"       .o..OOO.OOO..o..oOOO.    ",
"       ..OOOOOOOOOOO..ooooO.    ",
"       .OOOOOXXXOOOOO.Ooooo.    ",
"       .OOOOXXXXXOOOO.OOOo.     ",
"     ..o.OOOXXXXXOOO.o..OO.     ",
"   ..oooo....XXX....oooo..      ",
"  .ooooooooOOOOOOOoooooooo.     ",
" .Ooooo.oooOOOOOOOooo.ooooO.    ",
" .OOoo.oooOOOOOOOOOooo.ooOO.    ",
" .OOo.oooOOOOOOOOOOOooo.oOO.    ",
"  ....ooOOOOOO.OOOOOOoo....     ",
"     .o...............o.o.      ",
"      .OOOOOOOOOOOOOOO.o.       ",
"     .OOOOOOOOOOOOOOOOO..       ",
"    ..OOOOOOOOOOOOOOOOO..       ",
"   .oo.OOOOOOOOOOOOOOO.oo.      ",
"  .ooo.OOOOOOOXOOOOOOO.ooo.     ",
"  .Oooo.OOOOOOXOOOOOO.oooO.     ",
"  .OOOo.OOOOOOXOOOOOO.oOOO.     ",
"   .OOOo.OOOOOXOOOOO.oOOO.      ",
"    .... ........... ....       "
};
