/* XPM */
static const char *xpm_0[] = {
"32 32 5 1 ",
"  c None",
". c #1F1C1E",
"X c #545468",
"o c #A0A08A",
"O c #EAF0ED",
"                                ",
"                                "
"                                ",
"                                ",
"                                ",
"               ..               ",
"       ...  ...OO. ...          ",
"      .OOO..ooOO.o.OOO.         ",
"     ..OOooooo..ooooOO..        ",
"     ...o.ooooooooo.o...  XX    ",
"        .ooooooooooo.     X     ",
"   X    .ooooooooooo.    XX     ",
"  XX   .ooo..ooo..ooo.          ",
"   XX  .o..OOO.OOO..o.  ...     ",
"       ..OOOOOOOOOOO.. .OOO.    ",
"       .OOOOOXXXOOOOO..ooOO.    ",
"        .OOOXXXXXOOO.OOoooO.    ",
"      ....OOXXXXXOO....Ooo.     ",
"     .oooo...XXX...oooo.Oo.     ",
"    .ooooooOOOOOOOoooooo..      ",
"oo .oooo.ooOOOOOOOoo.oooo.      ",
"ooXXOoo.ooOOOOOOOOOoo.ooO.      ",
" XOOXO.ooOOOOO.OOOOOoo.OO.      ",
" XOOOX.o.............o...       ",
"  XOOOX.OOOOOOOOOOOOO..o.       ",
"   XOOXOOOOOOOOOOOOOOO..        ",
"    XX.OOOOOOOOOOOOOOO.o.       ",
"   .Ooo.OOOOOOOOOOOOO.ooO.      ",
"  .OOoo.OOOOOOXOOOOOO.ooOO.     ",
"  .OOOoo.OOOOOXOOOOO.ooOOO.     ",
"   .OOOoo.OOOOXOOOO.ooOOO.      ",
"    ..... ......... .....       ",
};
