/* XPM */
static const char *xpm_1[] = {
"32 32 5 1 ",
"  c None",
". c #1F1C1E",
"X c #545468",
"o c #A0A08A",
"O c #EAF0ED",
"                                ",
"                                "
"                                ",
"                                ",
"                                ",
"               ..               ",
"       ...  ...OO. ...          ",
"      .OOO..ooOO.o.OOO.         ",
"     ..OOooooo..ooooOO..  X     ",
"     ...o.ooooooooo.o...XXX     ",
"        .ooooooooooo.   X X     ",
"  XX    .ooooooooooo.    X  X   ",
" X X   .ooo..ooo..ooo.   XXX    ",
"  X    .o..OOO.OOO..o.  ...     ",
"  X XX ..OOOOOOOOOOO.. .OOO.    ",
"  XX   .OOOOOXXXOOOOO..ooOO.    ",
"        .OOOXXXXXOOO.OOoooO.    ",
"       ...OOXXXXXOO...OOoo.     ",
"     ..ooo...XXX...ooo..Oo.     ",
"    .ooooooOOOOOOOoooooo..      ",
"oo .oooo.ooOOOOOOOoo.oooo.      ",
"ooXXOoo.ooOOOOOOOOOoo.ooO.      ",
" XOOXO.ooOOOOO.OOOOOoo.OO.      ",
" XOOOX.o.............o...       ",
"  XOOOX.OOOOOOOOOOOOO..o.       ",
"   XOOXOOOOOOOOOOOOOOO..        ",
"    XX.OOOOOOOOOOOOOOO.o.       ",
"   .Ooo.OOOOOOOOOOOOO.ooO.      ",
"  .OOoo.OOOOOOXOOOOOO.ooOO.     ",
"  .OOOoo.OOOOOXOOOOO.ooOOO.     ",
"   .OOOoo.OOOOXOOOO.ooOOO.      ",
"    ..... ......... .....       ",
};
