/* XPM */
static const char *xpm_3[] = {
"32 32 5 1 ",
"  c None",
". c #1F1C1E",
"X c #545468",
"o c #A0A08A",
"O c #EAF0ED",
"                                "
"         XXXX                   ",
"            X                   ",
"          XX                    ",
"        XX                      ",
"         XXXXX ..               ",
"       ...  ...OO. ...          ",
"      .OOO..ooOO.o.OOO.  XXX    ",
"     ..OOooooo..ooooOO..     X  ",
"  XXX...o.ooooooooo.o...   XX   ",
"    X   .ooooooooooo.    XX     ",
"   X    .ooooooooooo.   X       ",
"  X    .ooo..ooo..ooo.   XXXX   ",
" XXXX  .o..OOO.OOO..o.  ...     ",
"       ..OOOOOOOOOOO.. .OOO.    ",
"       .OOOOOXXXOOOOO..ooOO.    ",
"        .OOOXXXXXOOO.OOoooO.    ",
"       ...OOXXXXXOO...OOoo.     ",
"     ..ooo...XXX...ooo..Oo.     ",
"    .ooooooOOOOOOOoooooo..      ",
"oo .oooo.ooOOOOOOOoo.oooo.      ",
"ooXXOoo.ooOOOOOOOOOoo.ooO.      ",
" XOOXO.ooOOOOO.OOOOOoo.OO.      ",
" XOOOX.o.............o...       ",
"  XOOOX.OOOOOOOOOOOOO..o.       ",
"   XOOXOOOOOOOOOOOOOOO..        ",
"    XX.OOOOOOOOOOOOOOO.o.       ",
"   .Ooo.OOOOOOOOOOOOO.ooO.      ",
"  .OOoo.OOOOOOXOOOOOO.ooOO.     ",
"  .OOOoo.OOOOOXOOOOO.ooOOO.     ",
"   .OOOoo.OOOOXOOOO.ooOOO.      ",
"    ..... ......... .....       ",
};
