/* XPM */
static const char *xpm_5[] = {
"32 32 5 1 ",
"  c None",
". c #1F1C1E",
"X c #545468",
"o c #A0A08A",
"O c #EAF0ED",
"                                "
"                                ",
"          X                     ",
"          XX                    ",
"               ..               ",
"       ...  ...OO. ...          ",
"     ..OOO..ooOO.o.OOO..        ",
"     ..OOooooo..ooooOO..        ",
"      ..o.ooooooooo.o..         ",
"        .ooooooooooo.      X    ",
"        .ooooooooooo.      X    ",
"       .ooo..ooo..ooo.          ",
"  XX   .o..OOO.OOO..o.          ",
"   X   ..OOOOOOOOOOO.. ...      ",
"       .OOOOOXXXOOOOO..OOO.     ",
"        .OOOXXXXXOOO. .ooo.     ",
"       ...OOXXXXXOO...OOoo.     ",
"      .ooo...XXX...ooo.OOO.     ",
"     .oooooOOOOOOOooooo.O.      ",
"    .ooo..oOOOOOOOo..ooo..      ",
"oo .ooo.oooOOOOOOOooo.ooo.      ",
"ooXXOo.oooOOOO.OOOOooo.oO.      ",
" XOOX.oooOOOOOOOOOOOooo..       ",
" XOOOXoo.............oo.        ",
"  XOOOX.OOOOOOOOOOOOO..         ",
"   XOOXOOOOOOOOOOOOOOO..        ",
"    XX.OOOOOOOOOOOOOOO.o.       ",
"   .Ooo.OOOOOOXOOOOOO.ooO.      ",
"  .OOooo.OOOOOXOOOOO.oooOO.     ",
"  .OOOoo.OOOOOXOOOOO.ooOOO.     ",
"   .OOOoo.OOOOXOOOO.ooOOO.      ",
"    ..... ......... .....       ",
};
