/* XPM */
static const char *xpm_5[] = {
"32 32 5 1 ",
"  c None",
". c #1F1C1E",
"X c #545468",
"o c #A0A08A",
"O c #EAF0ED",
"                                "
"                                ",
"          X                     ",
"          XX                    ",
"               ..               ",
"       ...  ...OO. ...          ",
"     ..OOO..ooOO.o.OOO..        ",
"     ..OOooooo..ooooOO..        ",
"      ..o.ooooooooo.o..         ",
"        .ooooooooooo.      X    ",
"        .oo..ooo..oo.      X    ",
"       .o..OOO.OOO..o.          ",
"  XX   ..OOOOOOOOOOO..          ",
"   X   .OOOOOXXXOOOOO. ...      ",
"       .OOOOXXXXXOOOO..OOO.     ",
"        .OOOXXXXXOOO. .ooo.     ",
"       ...OOOXXXOOO...OOoo.     ",
"     ..ooo.........ooo..OO.     ",
"    .ooooooOOOOOOOoooooo.O.     ",
"oo .oooo..oOOOOOOOo..oooo.      ",
"ooXXOoo.ooOOOOOOOOOoo.oooO.     ",
" XOOXO.ooOOOOO.OOOOOoo.OOO.     ",
" XOOOXooOOOOOOOOOOOOOoo...      ",
"  XOOOX...............o.        ",
"   XOOXOOOOOOOOOOOOOOO.         ",
"    XXXOOOOOOOOOOOOOOO..        ",
"    .o.OOOOOOOOOOOOOOO.o.       ",
"   .Ooo.OOOOOOXOOOOOO.ooO.      ",
"  .OOooo.OOOOOXOOOOO.oooOO.     ",
"  .OOOoo.OOOOOXOOOOO.ooOOO.     ",
"   .OOOoo.OOOOXOOOO.ooOOO.      ",
"    ..... ......... .....       ",
};
