/* XPM */
static char *xpm_0[] = {
"32 32 5 1 ",
"  c None",
". c #252542",
"X c #8a6c9c",
"o c #f3d4ac",
"O c #fcf6f1",
/* pixels */
"                                ",
"                            X   ",
"                           XoX  ",
"                .           X   ",
"     XX        .o.   .          ",
"    XoOX       .oo. .o.         ",
"    XooX      ..oOO..O.  .      ",
"     XX     ..OOOOOOOOO..O.     ",
"         ...OOOOOOOOOOOO....    ",
"         .oOOO..OOOOO..OOO..    ",
"       ..OOOOO.o.OOO.OO.OO.O.   ",
"  ..   .ooOOOOOOOOO..O..OO...   ",
"  .X. .OoOOOOOOOOO...OOO.O.O.   ",
"  .oX.OO..OOO...OO...OOO.o...   ",
"  .Xo.Oo.o.OO.X.oo....O.ooo..   ",
"  .oX.OoOOOO.XX.ooo.....ooo.    ",
"  .Xo.OoOOO.XXX.ooo....o.....   ",
"  .oX.OoOoo....ooooooooo.XXX.   ",
"  .XX.ooXooooooooooooooo.X...   ",
"  .Xoo.ooooooooooooooooo.XX.    ",
"  .oXX.ooXooooo.X.oooooo....    ",
"  .X.. .ooXoooo..ooooooo.       ",
"  ..    .ooXXXoooooooo..        ",
"         ..ooooooooo..          ",
"           .Xo...oo.X.          ",
"           .X.  .X. .           ",
"           ..   ..       XX     ",
"                        XoOX    ",
"                        XooX    ",
"                         XX     ",
"                                ",
"                                "
};
