/* XPM */
static char *xpm_1[] = {
"32 32 5 1 ",
"  c None",
". c #252542",
"X c #8a6c9c",
"o c #f3d4ac",
"O c #fcf6f1",
/* pixels */
"                          XX    ",
"                         XoOX   ",
"                         XooX   ",
"      XX                  XX    ",
"     XoOX        .              ",
"     XooX       .o.  ..         ",
"      XX       .oo. .o.         ",
"              ..oOO..O.  .      ",
"            ..OOOOOOOOO..O.     ",
"          ..OOOOOOOOOOOO....    ",
"         .oOOO..OOOOO..OOO..    ",
"        .OOOOO.o.OOO.OO.OO.O.   ",
"   ..  .ooOOOOOOOOO..OO.OO.O.   ",
"   .. .OoOOOOOOOOO...OOO.O.O.   ",
"   .X.OO..OOO...OO...O.O.o...   ",
"   .o.Oo.o.O.XX.oo....O.ooo..   ",
"   .X.OoOOOO.XX.ooo.....ooo.    ",
"   .o.OoOOOo.XX.ooo....o.....   ",
"   .X.OoOooo...ooooooooo.XXX.   ",
"   .o.ooXooooooooooooooo.X...   ",
"   .XX.ooooooooooooooooo.XX.    ",
"   .oo.ooXooooo.X.oooooo....    ",
"   ....oooXoooo..oooooooo.      ",
"   ..  .oooXoooooooooooo.       ",
"        .oooXXoooooooo..        ",
"         ..ooooooooo..  XX      ",
"           .oX..ooo.X. XoOX     ",
"           .X.  .X. .  XooX     ",
"            ..   ..     XX      ",
"                                ",
"    X                           ",
"                                "
};
