/* XPM */
static char *xpm_4[] = {
"32 32 5 1 ",
"  c None",
". c #1F1C1E",
"X c #545468",
"o c #A0A08A",
"O c #EAF0ED",
"                                ",
"                                ",
"               ..               ",
"     .....  ...OO. .....   X    ",
"     ..OOO..ooOO.o.OOO.. X   X  ",
"     ..OOooooo..ooooOO..  X X   ",
"      ..o.ooooooooo.o.. X     X ",
"        .ooooooooooo.     X X   ",
"        .ooo.ooo.ooo.    X   X  ",
"       .oooo.ooo.oooo.     X    ",
"       .o..OOO.OOO..o.          ",
"       ..OOOOOOOOOOO..  ...     ",
"       .OOOOOXXXOOOOO. .OOO.    ",
"        .OOOXXXXXOOO. .ooOO.    ",
"        ..OOXXXXXOO...OoooO.    ",
"      ..oo...XXX...oo..Ooo.     ",
"    ..oooooOOOOOOOooooo..o.     ",
"   .oooo..oOOOOOOOo..oooo.      ",
"  .Oooo.oooOOOOOOOooo.oooO.     ",
"  .OOoo.ooOOOOOOOOOoo.ooOO.     ",
"  .OOO.ooOOOOO.OOOOOoo.OOO.     ",
"   ....o.............o....      ",
"      ..OOOOOOOOOOOOO..o.       ",
"      .OOOOOOOOOOOOOOO.o.       ",
"     ..OOOOOOOOOOOOOOO..        ",
"    .oo.OOOOOOOOOOOOO.oo.       ",
"    .oo.OOOOOOXOOOOOO.oo.       ",
"   .oooo.OOOOOXOOOOO.oooo.      ",
"   .Oooo.OOOOOXOOOOO.oooO.      ",
"   .OOOOO.OOOOXOOOO.OOOOO.      ",
"    .OOO. ......... .OOO.       ",
"     ...             ...        "
};
