/* XPM */
static const char *xpm_0[] = {
"32 32 4 1",
"! c None",
"# c #000000",
"$ c #ffffff",
"% c #cb0000",
"!!!!!!!!!!!!!!!!!!!!!!!!!!!!!!!!",
"!!!!!!!!!!!!!!!!!!!!!!!!!!!!!!!!",
"!!!!!!!!!!!!!!!!!!!!!!!!!!!!!!!!",
"!!!!!!!!!!!!#!!!!!!!#!!!!!!!!!!!",
"!!!!!!!!!!!#$#!!!!!#$#!!!!!!!!!!",
"!!!!!!!!!!!#$$#!!!#$$#!!!!!!!!!!",
"!!!!!!!!!!#$$$#!!!#$$$#!!!!!!!!!",
"!!!!!!!!!!#$$$$#!#$$$$#!!!!!!!!!",
"!!!!!!!!!#$$$$$###$$$$$#!!!!!!!!",
"!!!!!!!!!#$$#$$$$$$$#$$#!!!!!!!!",
"!!!!!!!!!#$$$#$$$$$#$$$#!!!!!!!!",
"!!!!!!!!!#$$$$#$$$#$$$$#!!!!!!!!",
"!!!!!!!!###$$#$$#$$#$$###!!!!!!!",
"!!!!!!!#!#$#$$$$$$$$$#$#!#!!!!!!",
"!!!!!!!!!#$$$$#$#$#$$$$#!!!!!!!!",
"!!!!!!!!!!#$$$$#$#$$$$#!!!!!!!!!",
"!!!!!!!!!!!#$$$$$$$$$#!!!!!!!!!!",
"!!!!!!!!!!!!###$$$###!!!!!!!!!!!",
"!!!!!!!!!!!!!!#$$$#!!!!!!!!!!!!!",
"!!!!!!!!!!!!!#$$$$$#!!!!!!!!!!!!",
"!!!!!!!!!!!!#$$$$$$$#!!!!!!!!!!!",
"!!!!!!!!!!!#$$$$$$$$$#!!!!!!!!!!",
"!!!!!!!!##!#$$$$$$$$$#!##!!!!!!!",
"!!!!!!!#$$##$$$$#$$$$##$$#!!!!!!",
"!!!!!!#$$$$##$$$#$$$##$$$$#!!!!!",
"!!!!!!#$$%%%#$$$#$$$#$$$$$#!!!!!",
"!!!!!!###%%%#$$$#$$$#$$$#######!",
"!!!!!##$$$%$#$$###$$#$$$$$#$$$$#",
"!!!!!###########!##############!",
"!!!!!!!!!!!!!!!!!!!!!!!!!!!!!!!!",
"!!!!!!!!!!!!!!!!!!!!!!!!!!!!!!!!",
"!!!!!!!!!!!!!!!!!!!!!!!!!!!!!!!!"
};
