/* XPM */
static char *xpm_2[] = {
"32 32 5 1 ",
"  c None",
". c #1F1C1E",
"X c #545468",
"o c #A0A08A",
"O c #EAF0ED",
"                                ",
"               ..               ",
"              .OO.              ",
"     .....  ..OO.. .....        ",
"     ..OOO..oo..oo.OOO..        ",
"     ..OOoooooooooooOO..        ",
"      ..o.ooooooooo.o..         ",
"        .ooooooooooo.           ",
"        .oo.ooooo.oo.           ",
"       .oooo.ooo.oooo.          ",
"       .o..OOO.OOO..o. ...      ",
"       ..OOOOOOOOOOO...OOO.     ",
"       .OOOOOXXXOOOOO.ooOO.     ",
"        .OOOXXXXXOOO.Ooooo.     ",
"  ........OOXXXXXOO...Oooo.     ",
" .oooooooo...XXX...oo.....      ",
" .oooooooooOOOOOOOooooooo..     ",
" .Oooooo..oOOOOOOOoo.oooooO.    ",
"  ..ooo.oooOOOOOOOooo.oooOO.    ",
"    ...oooOOOOOOOOOoo.oooOO.    ",
"     .oooOOOOO.OOOOOoo.....     ",
"     .oo.............o.o.       ",
"      ..OOOOOOOOOOOOO..o.       ",
"      .OOOOOOOOOOOOOOO.o.       ",
"     ..OOOOOOOOOOOOOOO..        ",
"   ..oo.OOOOOOOOOOOOO.oo..      ",
"  .Oooo.OOOOOOXOOOOOO.oooO.     ",
"  .OOooo.OOOOOXOOOOO.oooOO.     ",
"  .OOooo.OOOOOXOOOOO.oooOO.     ",
"   .OOooo.OOOOXOOOO.oooOO.      ",
"    ..... ......... .....       ",
"                                "
};
