/* XPM */
static char *xpm_2[] = {
"32 32 5 1 ",
"  c None",
". c #1F1C1E",
"X c #545468",
"o c #A0A08A",
"O c #EAF0ED",
"               ..               ",
"     ...      .OO.   ...        ",
"     ..O..  ..OO.. ..O..        ",
"     ..OOO..oo..oo.OOO..        ",
"      .OOoooooooooooOO.   X X   ",
"       .o.ooooooooo.o.   XXXXX  ",
"        .ooooooooooo.    XXXXX  ",
"        .ooo.ooo.ooo.     XXX   ",
"       .ooo.o.o.o.ooo.     X    ",
"       .o..OOO.OOO..o. ...      ",
"       ..OOOOOOOOOOO...OOO.     ",
"       .OOOOOXXXOOOOO.ooOO.     ",
"        .OOOXXXXXOOO.Ooooo.     ",
"        ..OOXXXXXOO...Oooo.     ",
"    ....oo...XXX...oo.....      ",
"  ..oooooooOOOOOOOooooooo..     ",
" .Oooooo..oOOOOOOOo..oooooO.    ",
" .OOooo.oooOOOOOOOooo.oooOO.    ",
" .OOoo.oooOOOO.OOOOooo.ooOO.    ",
"  ....oooOOOOOOOOOOOooo....     ",
"     .oo.............oo..       ",
"      ..OOOOOOOOOOOOO..o.       ",
"      .OOOOOOOOOOOOOOO.o.       ",
"     ..OOOOOOOOOOOOOOO..        ",
"   ..oo.OOOOOOOOOOOOO.oo..      ",
"  .Oooo.OOOOOOXOOOOOO.oooO.     ",
"  .OOooo.OOOOOXOOOOO.oooOO.     ",
"  .OOooo.OOOOOXOOOOO.oooOO.     ",
"   .OOooo.OOOOXOOOO.oooOO.      ",
"    ..... ......... .....       ",
"                                ",
"                                "
};
