/* XPM */
static char *xpm_3[] = {
"32 32 5 1 ",
"  c None",
". c #1F1C1E",
"X c #545468",
"o c #A0A08A",
"O c #EAF0ED",
"                                ",
"                                ",
"                                ",
"                                ",
"                         XX XX  ",
"               ..        X X X  ",
"      ....  ...OO. ....  X   X  ",
"     ..OOO..ooOO.o.OOO..  X X   ",
"     ..OOooooo..ooooOO..   X    ",
"     ...o.ooooooooo.o...        ",
"        .ooooooooooo.           ",
"        .ooooooooooo.           ",
"       .ooo..ooo..ooo.          ",
"       .o..OOO.OOO..o.          ",
"       ..OOOOOOOOOOO..          ",
"       .OOOOOXXXOOOOO.          ",
"        .OOOXXXXXOOO.           ",
"      ....OOXXXXXOO....         ",
"     .oooo...XXX...oooo.  ...   ",
"    .ooooooOOOOOOOoooooo..OOO.  ",
"   .oooo.ooOOOOOOOoo.oooo.OOO.  ",
"   .Ooo.oooOOOOOOOooo.ooO.ooO.  ",
"   .OO.oooOOOOOOOOOooo.OO.ooo.  ",
"    ...o.............o...Ooo.   ",
"      ..OOOOOOOOOOOOO..oOOOo.   ",
"     ..OOOOOOOOOOOOOOO..oOOO.   ",
"    .o.OOOOOOOOOOOOOOO.o....    ",
"   .ooo.OOOOOOOOOOOOO.ooo.      ",
"   .ooo.OOOOOOXOOOOOO.ooo.      ",
"   .OOOo.OOOOOXOOOOO.oOOO.      ",
"   .OOOOO.OOOOXOOOO.OOOOO.      ",
"    ..... ......... .....       "
};
