/* XPM */
static char *xpm_5[] = {
"32 32 5 1 ",
"  c None",
". c #1F1C1E",
"X c #545468",
"o c #A0A08A",
"O c #EAF0ED",
"                                ",
"                                ",
"               ..               ",
"     .....  ...OO. .....        ",
"     ..OOO..ooOO.o.OOO..        ",
"     ..OOooooo..ooooOO..        ",
"      ..o.ooooooooo.o..         ",
"        .ooooooooooo.           ",
"        .ooo.ooo.ooo.           ",
"       .oooo.ooo.oooo.          ",
"       .o..OOO.OOO..o.          ",
"       ..OOOOOOOOOOO.. ...      ",
"       .OOOOOXXXOOOOO..OOO.     ",
"        .OOOXXXXXOOO. .OOO.     ",
"        ..OOXXXXXOO...oooo.     ",
"      ..oo...XXX...oo..oo.      ",
"    ..oooooOOOOOOOooooo...      ",
"   .oooo..oOOOOOOOo..oooo.      ",
"  .Oooo.oooOOOOOOOooo.oooO.     ",
"  .OOoo.ooOOOOOOOOOoo.ooOO.     ",
"  .OOO.ooOOOOO.OOOOOoo.OOO.     ",
"   ....o.............o....      ",
"      ..OOOOOOOOOOOOO..o.       ",
"      .OOOOOOOOOOOOOOO..        ",
"     ..OOOOOOOOOOOOOOO..        ",
"    .oo.OOOOOOOOOOOOO.oo.       ",
"    .oo.OOOOOOXOOOOOO.oo.       ",
"   .oooo.OOOOOXOOOOO.oooo.      ",
"   .Oooo.OOOOOXOOOOO.oooO.      ",
"   .OOOOO.OOOOXOOOO.OOOOO.      ",
"    .OOO. ......... .OOO.       ",
"     ...             ...        "
};
